STARTFONT 2.1
FONT -sun-helmet-bold-i-normal--14-140-75-75-p-89-adobe-fontspecific
SIZE 14 75 75
FONTBOUNDINGBOX 18 17 -2 -3

STARTPROPERTIES 28
FOUNDRY "sun"
FAMILY_NAME "helmet"
WEIGHT_NAME "bold"
SLANT "i"
SETWIDTH_NAME "normal"
ADD_STYLE_NAME ""
PIXEL_SIZE 15
POINT_SIZE 140
RESOLUTION_X 75
RESOLUTION_Y 75
SPACING "p"
AVERAGE_WIDTH 89
CHARSET_REGISTRY "adobe"
CHARSET_ENCODING "fontspecific"
COPYRIGHT "© 1999 Sun Microsystems, Inc."
RAW_PIXELSIZE 1000
RAW_POINTSIZE 964
RAW_ASCENT 929
RAW_DESCENT 205
RAW_AVERAGE_WIDTH 6124
FACE_NAME "HelmetBoldItalic5"
_XMBDFED_INFO "Edited with xmbdfed 2.4."
WEIGHT 10
X_HEIGHT -1
QUAD_WIDTH 8
DEFAULT_CHAR 4
FONT_DESCENT 3
FONT_ASCENT 14
ENDPROPERTIES

CHARS 202

STARTCHAR char32
ENCODING 32
SWIDTH 30 0
DWIDTH 5 0
BBX 0 0 0 0
BITMAP
ENDCHAR

STARTCHAR char33
ENCODING 33
SWIDTH 30 0
DWIDTH 5 0
BBX 6 10 0 0
BITMAP
38
38
38
38
30
30
00
70
70
70
ENDCHAR

STARTCHAR char34
ENCODING 34
SWIDTH 43 0
DWIDTH 7 0
BBX 7 6 1 5
BITMAP
12
66
6E
2E
EC
C8
ENDCHAR

STARTCHAR char35
ENCODING 35
SWIDTH 49 0
DWIDTH 8 0
BBX 7 11 0 0
BITMAP
12
14
14
24
3E
3E
24
FE
28
48
48
ENDCHAR

STARTCHAR char36
ENCODING 36
SWIDTH 5 0
DWIDTH 11 0
BBX 9 13 1 -2
BITMAP
0600
1F00
3F80
7380
7800
3F00
1F80
E380
E780
FF80
FF00
3C00
1000
ENDCHAR

STARTCHAR char37
ENCODING 37
SWIDTH 29 0
DWIDTH 15 0
BBX 15 10 0 0
BITMAP
3C20
7E60
EE40
EEBC
FF7E
FFEE
12EE
04EE
0CFC
1878
ENDCHAR

STARTCHAR char38
ENCODING 38
SWIDTH 5 0
DWIDTH 11 0
BBX 11 11 0 0
BITMAP
1F80
3FC0
39C0
3BC0
3F80
3F00
7EC0
E7C0
E7C0
7FC0
3DC0
ENDCHAR

STARTCHAR char39
ENCODING 39
SWIDTH 24 0
DWIDTH 4 0
BBX 4 6 1 4
BITMAP
30
70
50
60
E0
80
ENDCHAR

STARTCHAR char40
ENCODING 40
SWIDTH 36 0
DWIDTH 6 0
BBX 6 13 1 -3
BITMAP
18
38
70
70
70
E0
E0
E0
E0
E0
E0
E0
E0
ENDCHAR

STARTCHAR char41
ENCODING 41
SWIDTH 36 0
DWIDTH 6 0
BBX 6 13 -1 -3
BITMAP
1C
1C
1C
1C
1C
1C
1C
3C
38
38
70
60
E0
ENDCHAR

STARTCHAR char42
ENCODING 42
SWIDTH 43 0
DWIDTH 7 0
BBX 6 6 1 4
BITMAP
18
74
7C
78
78
08
ENDCHAR

STARTCHAR char43
ENCODING 43
SWIDTH 61 0
DWIDTH 10 0
BBX 9 9 1 0
BITMAP
1C00
1C00
1C00
1C00
FF80
FF80
1C00
1C00
1C00
ENDCHAR

STARTCHAR char44
ENCODING 44
SWIDTH 24 0
DWIDTH 4 0
BBX 4 6 -1 -3
BITMAP
70
70
70
30
E0
C0
ENDCHAR

STARTCHAR char45
ENCODING 45
SWIDTH 36 0
DWIDTH 6 0
BBX 6 3 0 2
BITMAP
78
F8
80
ENDCHAR

STARTCHAR char46
ENCODING 46
SWIDTH 24 0
DWIDTH 4 0
BBX 3 3 0 0
BITMAP
E0
E0
E0
ENDCHAR

STARTCHAR char47
ENCODING 47
SWIDTH 49 0
DWIDTH 8 0
BBX 8 10 0 0
BITMAP
07
07
0E
1C
1C
38
70
70
E0
E0
ENDCHAR

STARTCHAR char48
ENCODING 48
SWIDTH 61 0
DWIDTH 10 0
BBX 9 10 1 0
BITMAP
1E00
3F00
7380
6380
E380
E780
E700
EF00
7E00
3C00
ENDCHAR

STARTCHAR char49
ENCODING 49
SWIDTH 61 0
DWIDTH 10 0
BBX 6 10 2 0
BITMAP
0C
1C
FC
FC
3C
38
38
38
38
70
ENDCHAR

STARTCHAR char50
ENCODING 50
SWIDTH 61 0
DWIDTH 10 0
BBX 10 10 0 0
BITMAP
1F80
3FC0
7BC0
71C0
0780
1F80
3E00
7800
FF80
FF80
ENDCHAR

STARTCHAR char51
ENCODING 51
SWIDTH 61 0
DWIDTH 10 0
BBX 10 10 0 0
BITMAP
1F00
3FC0
79C0
03C0
0F80
0F80
E380
F380
FF00
3E00
ENDCHAR

STARTCHAR char52
ENCODING 52
SWIDTH 61 0
DWIDTH 10 0
BBX 10 10 0 0
BITMAP
03C0
0780
0F80
1F80
7B80
7780
FFC0
FF80
0700
0700
ENDCHAR

STARTCHAR char53
ENCODING 53
SWIDTH 61 0
DWIDTH 10 0
BBX 10 10 0 0
BITMAP
3FC0
3F80
7800
7F00
7F80
F380
E380
F780
FF00
7E00
ENDCHAR

STARTCHAR char54
ENCODING 54
SWIDTH 61 0
DWIDTH 10 0
BBX 9 10 1 0
BITMAP
1F00
3F80
7380
7F00
FF80
E780
E380
E780
7F00
3E00
ENDCHAR

STARTCHAR char55
ENCODING 55
SWIDTH 61 0
DWIDTH 10 0
BBX 8 10 2 0
BITMAP
FF
FF
0E
1C
38
78
70
70
E0
E0
ENDCHAR

STARTCHAR char56
ENCODING 56
SWIDTH 61 0
DWIDTH 10 0
BBX 10 10 0 0
BITMAP
1F00
3F80
71C0
7380
3F00
7F80
E380
E380
FF00
3E00
ENDCHAR

STARTCHAR char57
ENCODING 57
SWIDTH 61 0
DWIDTH 10 0
BBX 10 10 0 0
BITMAP
1F00
3F80
73C0
71C0
73C0
3FC0
1F80
F780
7F00
3E00
ENDCHAR

STARTCHAR char58
ENCODING 58
SWIDTH 30 0
DWIDTH 5 0
BBX 5 7 0 0
BITMAP
38
38
78
00
70
70
70
ENDCHAR

STARTCHAR char59
ENCODING 59
SWIDTH 30 0
DWIDTH 5 0
BBX 5 10 0 -3
BITMAP
38
38
78
00
70
70
70
60
E0
80
ENDCHAR

STARTCHAR char60
ENCODING 60
SWIDTH 55 0
DWIDTH 9 0
BBX 8 7 0 0
BITMAP
03
1C
60
C0
30
0C
03
ENDCHAR

STARTCHAR char61
ENCODING 61
SWIDTH 61 0
DWIDTH 10 0
BBX 9 5 1 2
BITMAP
FF80
FF80
0000
FF80
FF80
ENDCHAR

STARTCHAR char62
ENCODING 62
SWIDTH 55 0
DWIDTH 9 0
BBX 7 7 1 0
BITMAP
C0
30
0C
06
18
60
80
ENDCHAR

STARTCHAR char63
ENCODING 63
SWIDTH 55 0
DWIDTH 9 0
BBX 8 10 2 0
BITMAP
7E
FF
E7
1E
3C
38
00
70
70
70
ENDCHAR

STARTCHAR char64
ENCODING 64
SWIDTH 36 0
DWIDTH 16 0
BBX 11 11 2 0
BITMAP
0F00
3180
64C0
5FE0
D160
F160
F340
F240
7F80
3FC0
1F00
ENDCHAR

STARTCHAR char65
ENCODING 65
SWIDTH 11 0
DWIDTH 12 0
BBX 11 10 -1 0
BITMAP
0380
07C0
07C0
0FC0
1DC0
1CC0
3FE0
7FE0
70E0
70E0
ENDCHAR

STARTCHAR char66
ENCODING 66
SWIDTH 5 0
DWIDTH 11 0
BBX 10 10 0 0
BITMAP
3F80
3FC0
39C0
71C0
7F80
7F80
7180
7380
FF80
FF00
ENDCHAR

STARTCHAR char67
ENCODING 67
SWIDTH 11 0
DWIDTH 12 0
BBX 10 10 1 0
BITMAP
1F00
3F80
71C0
E000
E000
E000
E380
E780
7F00
3E00
ENDCHAR

STARTCHAR char68
ENCODING 68
SWIDTH 11 0
DWIDTH 12 0
BBX 11 11 0 -1
BITMAP
3F80
3FC0
39E0
78E0
70E0
70E0
71E0
73C0
FF80
FF00
C000
ENDCHAR

STARTCHAR char69
ENCODING 69
SWIDTH 61 0
DWIDTH 10 0
BBX 11 11 0 -1
BITMAP
3FC0
3FC0
3800
7000
7F80
7F80
7000
7080
FF80
FF80
C000
ENDCHAR

STARTCHAR char70
ENCODING 70
SWIDTH 55 0
DWIDTH 9 0
BBX 10 10 0 0
BITMAP
3FC0
3FC0
3800
7880
7F00
7F00
7000
F000
E000
6000
ENDCHAR

STARTCHAR char71
ENCODING 71
SWIDTH 11 0
DWIDTH 12 0
BBX 10 10 1 0
BITMAP
0F00
3FC0
71C0
E000
E7C0
E7C0
E3C0
F3C0
7F80
3D80
ENDCHAR

STARTCHAR char72
ENCODING 72
SWIDTH 11 0
DWIDTH 12 0
BBX 12 10 0 0
BITMAP
38E0
38E0
38E0
78E0
7FE0
7FE0
71C0
F1C0
E3C0
61C0
ENDCHAR

STARTCHAR char73
ENCODING 73
SWIDTH 30 0
DWIDTH 5 0
BBX 5 10 0 0
BITMAP
38
38
38
78
70
70
70
F0
F0
60
ENDCHAR

STARTCHAR char74
ENCODING 74
SWIDTH 55 0
DWIDTH 9 0
BBX 9 10 0 0
BITMAP
0300
0380
0380
0780
0700
0700
E700
EF00
FE00
3C00
ENDCHAR

STARTCHAR char75
ENCODING 75
SWIDTH 5 0
DWIDTH 11 0
BBX 12 10 0 0
BITMAP
38E0
3BE0
3FC0
7F00
7F00
7F00
7780
F380
E3C0
61C0
ENDCHAR

STARTCHAR char76
ENCODING 76
SWIDTH 55 0
DWIDTH 9 0
BBX 8 11 0 -1
BITMAP
38
38
38
78
70
70
70
71
FF
FF
80
ENDCHAR

STARTCHAR char77
ENCODING 77
SWIDTH 23 0
DWIDTH 14 0
BBX 13 10 0 0
BITMAP
3E70
3EF8
3EF8
7DF8
7DB8
7FF0
6F70
EF70
EE70
6E60
ENDCHAR

STARTCHAR char78
ENCODING 78
SWIDTH 5 0
DWIDTH 11 0
BBX 11 10 0 0
BITMAP
3CC0
3CE0
3CE0
7CE0
7EC0
77C0
77C0
E7C0
E3C0
6380
ENDCHAR

STARTCHAR char79
ENCODING 79
SWIDTH 11 0
DWIDTH 12 0
BBX 10 10 1 0
BITMAP
1F00
3F80
71C0
E1C0
E1C0
E1C0
E380
F380
7F00
3E00
ENDCHAR

STARTCHAR char80
ENCODING 80
SWIDTH 5 0
DWIDTH 11 0
BBX 10 10 0 0
BITMAP
3F80
3FC0
39C0
79C0
71C0
7F80
7F00
F000
E000
6000
ENDCHAR

STARTCHAR char81
ENCODING 81
SWIDTH 11 0
DWIDTH 12 0
BBX 10 11 1 -1
BITMAP
1F00
3F80
71C0
E1C0
E1C0
E3C0
E7C0
F780
7F00
3F80
0100
ENDCHAR

STARTCHAR char82
ENCODING 82
SWIDTH 5 0
DWIDTH 11 0
BBX 11 10 0 0
BITMAP
3FC0
3FE0
78E0
71E0
7FC0
7F80
73C0
F3C0
E3C0
63C0
ENDCHAR

STARTCHAR char83
ENCODING 83
SWIDTH 61 0
DWIDTH 10 0
BBX 10 10 0 0
BITMAP
1F80
3FC0
7800
7E00
3F80
1F80
0380
F380
FF00
3E00
ENDCHAR

STARTCHAR char84
ENCODING 84
SWIDTH 55 0
DWIDTH 9 0
BBX 9 10 1 0
BITMAP
FF80
FF80
9C00
3C00
3800
3800
3800
7800
7800
3000
ENDCHAR

STARTCHAR char85
ENCODING 85
SWIDTH 5 0
DWIDTH 11 0
BBX 11 10 1 0
BITMAP
61C0
71C0
71C0
63C0
E3C0
E380
E380
E780
FF00
3E00
ENDCHAR

STARTCHAR char86
ENCODING 86
SWIDTH 61 0
DWIDTH 10 0
BBX 10 10 1 0
BITMAP
F180
73C0
7380
7780
7700
7700
7E00
7E00
7C00
7C00
ENDCHAR

STARTCHAR char87
ENCODING 87
SWIDTH 29 0
DWIDTH 15 0
BBX 15 10 1 0
BITMAP
F39C
739C
77BC
77B8
7F78
7FF0
7FF0
7FE0
7BE0
7BC0
ENDCHAR

STARTCHAR char88
ENCODING 88
SWIDTH 11 0
DWIDTH 12 0
BBX 14 10 -1 0
BITMAP
1C78
1EF8
0FF0
0FC0
0780
0F80
1FC0
3DC0
79E0
70F0
ENDCHAR

STARTCHAR char89
ENCODING 89
SWIDTH 5 0
DWIDTH 11 0
BBX 11 10 1 0
BITMAP
71C0
73E0
7BC0
3F80
3F00
1E00
1C00
1C00
3C00
1800
ENDCHAR

STARTCHAR char90
ENCODING 90
SWIDTH 61 0
DWIDTH 10 0
BBX 11 12 0 -1
BITMAP
0060
3FC0
3FC0
47C0
0F80
1F00
3E00
7C00
F880
FF80
FF80
8000
ENDCHAR

STARTCHAR char91
ENCODING 91
SWIDTH 43 0
DWIDTH 7 0
BBX 8 13 0 -3
BITMAP
1F
3E
38
38
38
38
70
70
70
70
70
F8
F8
ENDCHAR

STARTCHAR char92
ENCODING 92
SWIDTH 24 0
DWIDTH 4 0
BBX 4 11 0 0
BITMAP
80
80
80
40
40
40
20
20
20
10
10
ENDCHAR

STARTCHAR char93
ENCODING 93
SWIDTH 43 0
DWIDTH 7 0
BBX 8 12 -1 -2
BITMAP
1E
3E
0E
0E
1C
1C
1C
1C
1C
38
F8
F8
ENDCHAR

STARTCHAR char94
ENCODING 94
SWIDTH 0 0
DWIDTH 0 0
BBX 6 2 -1 11
BITMAP
78
FC
ENDCHAR

STARTCHAR char95
ENCODING 95
SWIDTH 55 0
DWIDTH 9 0
BBX 8 1 0 -2
BITMAP
FF
ENDCHAR

STARTCHAR char96
ENCODING 96
SWIDTH 0 0
DWIDTH 0 0
BBX 4 2 -2 8
BITMAP
70
30
ENDCHAR

STARTCHAR char97
ENCODING 97
SWIDTH 61 0
DWIDTH 10 0
BBX 9 7 0 0
BITMAP
1F00
7380
1F80
7B80
E700
FF00
7700
ENDCHAR

STARTCHAR char98
ENCODING 98
SWIDTH 61 0
DWIDTH 10 0
BBX 9 10 0 0
BITMAP
3800
3800
7000
7F00
7F80
7380
6380
F780
FF00
EE00
ENDCHAR

STARTCHAR char99
ENCODING 99
SWIDTH 55 0
DWIDTH 9 0
BBX 9 7 0 0
BITMAP
1F00
7F80
F380
E000
E780
FF00
3E00
ENDCHAR

STARTCHAR char100
ENCODING 100
SWIDTH 61 0
DWIDTH 10 0
BBX 10 10 0 0
BITMAP
01C0
01C0
01C0
3D80
7F80
F380
E380
E780
FF00
7F00
ENDCHAR

STARTCHAR char101
ENCODING 101
SWIDTH 61 0
DWIDTH 10 0
BBX 9 7 0 0
BITMAP
1E00
7F80
FF80
FF80
E000
7F00
3E00
ENDCHAR

STARTCHAR char102
ENCODING 102
SWIDTH 30 0
DWIDTH 5 0
BBX 6 10 0 0
BITMAP
1C
3C
38
7C
F8
70
70
70
E0
60
ENDCHAR

STARTCHAR char103
ENCODING 103
SWIDTH 61 0
DWIDTH 10 0
BBX 9 9 0 -2
BITMAP
3D80
7F80
E380
E300
F700
7F00
1700
FE00
7C00
ENDCHAR

STARTCHAR char104
ENCODING 104
SWIDTH 61 0
DWIDTH 10 0
BBX 9 10 0 0
BITMAP
3800
3800
7300
7F80
7F80
7380
7380
E300
E700
6300
ENDCHAR

STARTCHAR char105
ENCODING 105
SWIDTH 30 0
DWIDTH 5 0
BBX 5 10 0 0
BITMAP
38
38
00
70
70
70
70
E0
E0
60
ENDCHAR

STARTCHAR char106
ENCODING 106
SWIDTH 30 0
DWIDTH 5 0
BBX 7 12 -2 -2
BITMAP
0E
0E
00
1C
1C
1C
18
38
38
38
F0
F0
ENDCHAR

STARTCHAR char107
ENCODING 107
SWIDTH 55 0
DWIDTH 9 0
BBX 10 10 0 0
BITMAP
3800
3800
7000
7780
7E00
7C00
7E00
FE00
E700
6700
ENDCHAR

STARTCHAR char108
ENCODING 108
SWIDTH 30 0
DWIDTH 5 0
BBX 5 10 0 0
BITMAP
38
38
38
70
70
70
70
F0
E0
60
ENDCHAR

STARTCHAR char109
ENCODING 109
SWIDTH 29 0
DWIDTH 15 0
BBX 14 7 0 0
BITMAP
4F7C
7FFC
739C
E718
E738
E738
6318
ENDCHAR

STARTCHAR char110
ENCODING 110
SWIDTH 61 0
DWIDTH 10 0
BBX 9 7 0 0
BITMAP
4F80
7F80
7380
7700
E700
E700
6300
ENDCHAR

STARTCHAR char111
ENCODING 111
SWIDTH 61 0
DWIDTH 10 0
BBX 9 7 0 0
BITMAP
1E00
7F80
E380
E380
E780
FF00
3E00
ENDCHAR

STARTCHAR char112
ENCODING 112
SWIDTH 61 0
DWIDTH 10 0
BBX 10 9 -1 -2
BITMAP
3B80
3FC0
39C0
71C0
7B80
7F80
7F00
E000
6000
ENDCHAR

STARTCHAR char113
ENCODING 113
SWIDTH 61 0
DWIDTH 10 0
BBX 10 9 0 -2
BITMAP
1DC0
7F80
F380
E380
E780
FF00
7700
0700
0700
ENDCHAR

STARTCHAR char114
ENCODING 114
SWIDTH 36 0
DWIDTH 6 0
BBX 7 7 0 0
BITMAP
7E
7C
70
70
E0
E0
60
ENDCHAR

STARTCHAR char115
ENCODING 115
SWIDTH 55 0
DWIDTH 9 0
BBX 8 7 0 0
BITMAP
3E
77
7E
3F
07
FF
7C
ENDCHAR

STARTCHAR char116
ENCODING 116
SWIDTH 36 0
DWIDTH 6 0
BBX 6 10 0 0
BITMAP
38
38
38
7C
FC
70
70
70
78
70
ENDCHAR

STARTCHAR char117
ENCODING 117
SWIDTH 61 0
DWIDTH 10 0
BBX 9 7 0 0
BITMAP
6300
7380
F380
E380
E700
FF00
7900
ENDCHAR

STARTCHAR char118
ENCODING 118
SWIDTH 49 0
DWIDTH 8 0
BBX 8 7 1 0
BITMAP
E6
EE
EE
FC
F8
78
70
ENDCHAR

STARTCHAR char119
ENCODING 119
SWIDTH 17 0
DWIDTH 13 0
BBX 12 7 1 0
BITMAP
EF60
EE70
FEE0
FFE0
F7C0
F780
F780
ENDCHAR

STARTCHAR char120
ENCODING 120
SWIDTH 55 0
DWIDTH 9 0
BBX 8 7 0 0
BITMAP
77
3F
3E
3C
7C
FE
EE
ENDCHAR

STARTCHAR char121
ENCODING 121
SWIDTH 49 0
DWIDTH 8 0
BBX 8 9 0 -2
BITMAP
67
77
76
7E
7C
7C
38
F0
F0
ENDCHAR

STARTCHAR char122
ENCODING 122
SWIDTH 49 0
DWIDTH 8 0
BBX 8 7 0 0
BITMAP
7F
7F
1E
3C
70
FE
FE
ENDCHAR

STARTCHAR char123
ENCODING 123
SWIDTH 30 0
DWIDTH 5 0
BBX 3 13 1 -3
BITMAP
E0
E0
40
40
40
80
80
C0
C0
C0
C0
E0
60
ENDCHAR

STARTCHAR char124
ENCODING 124
SWIDTH 24 0
DWIDTH 4 0
BBX 2 11 1 0
BITMAP
C0
C0
C0
C0
C0
C0
C0
C0
C0
C0
C0
ENDCHAR

STARTCHAR char125
ENCODING 125
SWIDTH 30 0
DWIDTH 5 0
BBX 3 13 1 -3
BITMAP
C0
C0
C0
C0
C0
60
60
C0
40
40
C0
C0
80
ENDCHAR

STARTCHAR char126
ENCODING 126
SWIDTH 0 0
DWIDTH 0 0
BBX 6 2 -1 11
BITMAP
7C
F8
ENDCHAR

STARTCHAR char128
ENCODING 128
SWIDTH 11 0
DWIDTH 12 0
BBX 12 10 -1 0
BITMAP
07C0
0FE0
1C70
3800
7F80
FF00
38E0
39E0
1FC0
0F80
ENDCHAR

STARTCHAR char130
ENCODING 130
SWIDTH 24 0
DWIDTH 4 0
BBX 5 6 -1 -3
BITMAP
38
70
70
30
60
C0
ENDCHAR

STARTCHAR char131
ENCODING 131
SWIDTH 0 0
DWIDTH 0 0
BBX 6 2 -1 11
BITMAP
78
FC
ENDCHAR

STARTCHAR char132
ENCODING 132
SWIDTH 49 0
DWIDTH 8 0
BBX 7 6 -1 -3
BITMAP
12
76
66
6E
EC
C8
ENDCHAR

STARTCHAR char133
ENCODING 133
SWIDTH 36 0
DWIDTH 16 0
BBX 12 2 1 0
BITMAP
C630
C630
ENDCHAR

STARTCHAR char134
ENCODING 134
SWIDTH 55 0
DWIDTH 9 0
BBX 9 12 1 -2
BITMAP
1800
1C00
1C80
FF00
FF00
B800
3800
7000
7000
7000
7000
7000
ENDCHAR

STARTCHAR char136
ENCODING 136
SWIDTH 0 0
DWIDTH 0 0
BBX 6 2 -2 8
BITMAP
38
6C
ENDCHAR

STARTCHAR char138
ENCODING 138
SWIDTH 29 0
DWIDTH 15 0
BBX 0 0 0 0
BITMAP
ENDCHAR

STARTCHAR char139
ENCODING 139
SWIDTH 30 0
DWIDTH 5 0
BBX 3 4 1 2
BITMAP
60
C0
C0
60
ENDCHAR

STARTCHAR char140
ENCODING 140
SWIDTH 36 0
DWIDTH 16 0
BBX 15 10 1 0
BITMAP
1EFE
3FFE
71C0
61C0
E1FC
E1F8
E1C0
E3FC
7FF8
3BF8
ENDCHAR

STARTCHAR char141
ENCODING 141
SWIDTH 29 0
DWIDTH 15 0
BBX 0 0 0 0
BITMAP
ENDCHAR

STARTCHAR char145
ENCODING 145
SWIDTH 24 0
DWIDTH 4 0
BBX 4 6 1 4
BITMAP
30
70
50
60
E0
80
ENDCHAR

STARTCHAR char146
ENCODING 146
SWIDTH 24 0
DWIDTH 4 0
BBX 4 6 1 5
BITMAP
10
70
70
60
E0
C0
ENDCHAR

STARTCHAR char147
ENCODING 147
SWIDTH 49 0
DWIDTH 8 0
BBX 7 6 1 4
BITMAP
36
6E
6E
EC
EC
90
ENDCHAR

STARTCHAR char148
ENCODING 148
SWIDTH 49 0
DWIDTH 8 0
BBX 7 6 1 5
BITMAP
12
6E
6E
6C
EC
C8
ENDCHAR

STARTCHAR char149
ENCODING 149
SWIDTH 30 0
DWIDTH 5 0
BBX 3 4 1 3
BITMAP
40
E0
E0
40
ENDCHAR

STARTCHAR char150
ENCODING 150
SWIDTH 61 0
DWIDTH 10 0
BBX 9 3 0 2
BITMAP
7F80
FF80
8000
ENDCHAR

STARTCHAR char151
ENCODING 151
SWIDTH 61 0
DWIDTH 10 0
BBX 9 2 1 3
BITMAP
FF80
FF80
ENDCHAR

STARTCHAR char152
ENCODING 152
SWIDTH 0 0
DWIDTH 0 0
BBX 6 2 -2 8
BITMAP
7C
F8
ENDCHAR

STARTCHAR char153
ENCODING 153
SWIDTH 17 0
DWIDTH 13 0
BBX 12 6 0 4
BITMAP
FE30
BA30
2350
2350
23B0
66F0
ENDCHAR

STARTCHAR char155
ENCODING 155
SWIDTH 30 0
DWIDTH 5 0
BBX 3 4 1 2
BITMAP
C0
60
60
80
ENDCHAR

STARTCHAR char156
ENCODING 156
SWIDTH 29 0
DWIDTH 15 0
BBX 14 8 0 0
BITMAP
0800
3EF8
77FC
E3FC
E3FC
E700
FFF8
3DF0
ENDCHAR

STARTCHAR char157
ENCODING 157
SWIDTH 29 0
DWIDTH 15 0
BBX 0 0 0 0
BITMAP
ENDCHAR

STARTCHAR char159
ENCODING 159
SWIDTH 5 0
DWIDTH 11 0
BBX 11 13 1 0
BITMAP
1F80
1B80
0000
71E0
73C0
7B80
3F00
3E00
1E00
1C00
1C00
3C00
1800
ENDCHAR

STARTCHAR char160
ENCODING 160
SWIDTH 30 0
DWIDTH 5 0
BBX 0 0 0 0
BITMAP
ENDCHAR

STARTCHAR char161
ENCODING 161
SWIDTH 30 0
DWIDTH 5 0
BBX 5 10 0 0
BITMAP
38
38
70
00
70
60
60
E0
E0
60
ENDCHAR

STARTCHAR char162
ENCODING 162
SWIDTH 55 0
DWIDTH 9 0
BBX 9 11 0 -2
BITMAP
0600
1E00
7F80
7380
E000
E000
E780
FF00
3E00
3000
3000
ENDCHAR

STARTCHAR char163
ENCODING 163
SWIDTH 61 0
DWIDTH 10 0
BBX 9 10 1 0
BITMAP
1F00
3F80
7380
7380
F800
FC00
7000
7A00
FE00
8E00
ENDCHAR

STARTCHAR char164
ENCODING 164
SWIDTH 0 0
DWIDTH 0 0
BBX 5 2 0 11
BITMAP
70
60
ENDCHAR

STARTCHAR char165
ENCODING 165
SWIDTH 0 0
DWIDTH 0 0
BBX 6 2 -1 11
BITMAP
DC
78
ENDCHAR

STARTCHAR char166
ENCODING 166
SWIDTH 29 0
DWIDTH 15 0
BBX 0 0 0 0
BITMAP
ENDCHAR

STARTCHAR char167
ENCODING 167
SWIDTH 61 0
DWIDTH 10 0
BBX 10 13 0 -3
BITMAP
0F80
3FC0
39C0
3F00
7F80
E3C0
F9C0
7F80
3F00
0700
E700
7F00
3C00
ENDCHAR

STARTCHAR char168
ENCODING 168
SWIDTH 0 0
DWIDTH 0 0
BBX 7 2 -2 8
BITMAP
EC
EC
ENDCHAR

STARTCHAR char169
ENCODING 169
SWIDTH 11 0
DWIDTH 12 0
BBX 11 10 0 0
BITMAP
0E00
3100
4080
5E40
F160
F060
F060
5E40
6080
1F00
ENDCHAR

STARTCHAR char170
ENCODING 170
SWIDTH 0 0
DWIDTH 0 0
BBX 6 2 -1 11
BITMAP
FC
DC
ENDCHAR

STARTCHAR char171
ENCODING 171
SWIDTH 36 0
DWIDTH 6 0
BBX 6 6 0 1
BITMAP
24
6C
D8
D8
D8
48
ENDCHAR

STARTCHAR char172
ENCODING 172
SWIDTH 5 0
DWIDTH 11 0
BBX 10 4 0 0
BITMAP
FFC0
00C0
00C0
00C0
ENDCHAR

STARTCHAR char174
ENCODING 174
SWIDTH 11 0
DWIDTH 12 0
BBX 11 10 0 0
BITMAP
0E00
3100
4080
5F40
DB60
DC60
DE60
5B40
6080
1F00
ENDCHAR

STARTCHAR char176
ENCODING 176
SWIDTH 30 0
DWIDTH 5 0
BBX 6 5 0 5
BITMAP
30
48
CC
48
30
ENDCHAR

STARTCHAR char177
ENCODING 177
SWIDTH 49 0
DWIDTH 8 0
BBX 7 9 0 0
BITMAP
18
18
18
FE
18
18
18
00
FE
ENDCHAR

STARTCHAR char179
ENCODING 179
SWIDTH 29 0
DWIDTH 15 0
BBX 0 0 0 0
BITMAP
ENDCHAR

STARTCHAR char180
ENCODING 180
SWIDTH 0 0
DWIDTH 0 0
BBX 4 2 0 8
BITMAP
60
C0
ENDCHAR

STARTCHAR char182
ENCODING 182
SWIDTH 61 0
DWIDTH 10 0
BBX 7 12 1 -2
BITMAP
7E
E6
E6
E6
66
26
26
26
26
26
26
26
ENDCHAR

STARTCHAR char183
ENCODING 183
SWIDTH 18 0
DWIDTH 3 0
BBX 3 2 0 3
BITMAP
E0
E0
ENDCHAR

STARTCHAR char184
ENCODING 184
SWIDTH 0 0
DWIDTH 0 0
BBX 3 3 -2 -3
BITMAP
E0
E0
C0
ENDCHAR

STARTCHAR char186
ENCODING 186
SWIDTH 0 0
DWIDTH 0 0
BBX 6 2 -1 11
BITMAP
7C
F8
ENDCHAR

STARTCHAR char187
ENCODING 187
SWIDTH 36 0
DWIDTH 6 0
BBX 6 6 0 1
BITMAP
48
7C
6C
68
D8
90
ENDCHAR

STARTCHAR char189
ENCODING 189
SWIDTH 29 0
DWIDTH 15 0
BBX 0 0 0 0
BITMAP
ENDCHAR

STARTCHAR char191
ENCODING 191
SWIDTH 55 0
DWIDTH 9 0
BBX 8 10 0 0
BITMAP
0E
0E
0E
00
1C
78
F7
E7
FE
7C
ENDCHAR

STARTCHAR char192
ENCODING 192
SWIDTH 11 0
DWIDTH 12 0
BBX 11 13 -1 0
BITMAP
0700
0380
0000
03C0
07C0
07C0
0FC0
1DC0
1CC0
3FE0
7FE0
70E0
70E0
ENDCHAR

STARTCHAR char193
ENCODING 193
SWIDTH 11 0
DWIDTH 12 0
BBX 11 13 -1 0
BITMAP
01C0
0180
0000
03C0
07C0
07C0
0FC0
1DC0
1CC0
3FE0
7FE0
70E0
70E0
ENDCHAR

STARTCHAR char194
ENCODING 194
SWIDTH 11 0
DWIDTH 12 0
BBX 11 13 -1 0
BITMAP
03C0
07E0
0000
03C0
07C0
07C0
0FC0
1DC0
1CC0
3FE0
7FE0
70E0
70E0
ENDCHAR

STARTCHAR char195
ENCODING 195
SWIDTH 11 0
DWIDTH 12 0
BBX 11 13 -1 0
BITMAP
03E0
07C0
0000
03C0
07C0
07C0
0FC0
1DC0
1CC0
3FE0
7FE0
70E0
70E0
ENDCHAR

STARTCHAR char196
ENCODING 196
SWIDTH 11 0
DWIDTH 12 0
BBX 11 13 -1 0
BITMAP
0760
07E0
0000
03C0
07C0
07C0
0FC0
1DC0
1CC0
3FE0
7FE0
70E0
70E0
ENDCHAR

STARTCHAR char197
ENCODING 197
SWIDTH 11 0
DWIDTH 12 0
BBX 11 14 -1 0
BITMAP
03C0
0340
03C0
0000
03C0
07C0
07C0
0EC0
1EC0
1CE0
3FE0
7FE0
70E0
70E0
ENDCHAR

STARTCHAR char198
ENCODING 198
SWIDTH 29 0
DWIDTH 15 0
BBX 16 10 -1 0
BITMAP
07FF
07FF
0EE0
0CE0
1CFC
1DFC
3FC0
3FFE
71FC
F1FC
ENDCHAR

STARTCHAR char199
ENCODING 199
SWIDTH 11 0
DWIDTH 12 0
BBX 10 13 1 -3
BITMAP
1F00
3F80
71C0
E000
E000
E000
E380
F780
7F00
3E00
3800
1800
3000
ENDCHAR

STARTCHAR char200
ENCODING 200
SWIDTH 61 0
DWIDTH 10 0
BBX 11 14 0 -1
BITMAP
0E00
0600
0000
3FC0
3FC0
3800
7000
7F80
7F80
7000
7080
FF80
FF80
C000
ENDCHAR

STARTCHAR char201
ENCODING 201
SWIDTH 61 0
DWIDTH 10 0
BBX 11 14 0 -1
BITMAP
0380
0700
0000
3FC0
3FC0
3800
7000
7F80
7F80
7000
7080
FF80
FF80
C000
ENDCHAR

STARTCHAR char202
ENCODING 202
SWIDTH 61 0
DWIDTH 10 0
BBX 11 14 0 -1
BITMAP
0700
0D80
0000
3FC0
3FC0
3800
7000
7F80
7F80
7000
7080
FF80
FF80
C000
ENDCHAR

STARTCHAR char203
ENCODING 203
SWIDTH 61 0
DWIDTH 10 0
BBX 11 14 0 -1
BITMAP
1D80
1D80
0000
3FC0
3FC0
3800
7000
7F80
7F80
7000
7080
FF80
FF80
C000
ENDCHAR

STARTCHAR char204
ENCODING 204
SWIDTH 30 0
DWIDTH 5 0
BBX 5 13 0 0
BITMAP
70
38
00
38
38
38
78
70
70
70
F0
F0
60
ENDCHAR

STARTCHAR char205
ENCODING 205
SWIDTH 30 0
DWIDTH 5 0
BBX 7 13 0 0
BITMAP
1C
18
00
38
38
38
78
70
70
70
F0
F0
60
ENDCHAR

STARTCHAR char206
ENCODING 206
SWIDTH 30 0
DWIDTH 5 0
BBX 7 13 0 0
BITMAP
3C
7C
00
38
38
38
78
70
70
70
F0
F0
60
ENDCHAR

STARTCHAR char207
ENCODING 207
SWIDTH 30 0
DWIDTH 5 0
BBX 7 13 0 0
BITMAP
7E
6E
00
38
38
38
78
70
70
70
F0
F0
60
ENDCHAR

STARTCHAR char209
ENCODING 209
SWIDTH 5 0
DWIDTH 11 0
BBX 11 13 0 0
BITMAP
0F80
0F80
0000
3CE0
3CE0
7CE0
7CE0
7EC0
77C0
77C0
E7C0
E380
6380
ENDCHAR

STARTCHAR char210
ENCODING 210
SWIDTH 11 0
DWIDTH 12 0
BBX 10 13 1 0
BITMAP
0E00
0600
0000
1F00
3F80
71C0
E1C0
E1C0
E1C0
E380
F380
7F00
3E00
ENDCHAR

STARTCHAR char211
ENCODING 211
SWIDTH 11 0
DWIDTH 12 0
BBX 10 13 1 0
BITMAP
0300
0600
0000
1F00
3F80
71C0
E1C0
E1C0
E1C0
E380
F380
7F00
3E00
ENDCHAR

STARTCHAR char212
ENCODING 212
SWIDTH 11 0
DWIDTH 12 0
BBX 10 13 1 0
BITMAP
0700
0D00
0000
1F00
3F80
71C0
E1C0
E1C0
E1C0
E380
F380
7F00
3E00
ENDCHAR

STARTCHAR char213
ENCODING 213
SWIDTH 11 0
DWIDTH 12 0
BBX 10 13 1 0
BITMAP
0F00
1F00
0000
1F00
3F80
71C0
E1C0
E1C0
E1C0
E380
F380
7F00
3E00
ENDCHAR

STARTCHAR char214
ENCODING 214
SWIDTH 11 0
DWIDTH 12 0
BBX 10 13 1 0
BITMAP
0D80
1D80
0000
1F00
3F80
71C0
E1C0
E1C0
E1C0
E380
F380
7F00
3E00
ENDCHAR

STARTCHAR char216
ENCODING 216
SWIDTH 11 0
DWIDTH 12 0
BBX 12 10 0 0
BITMAP
0F90
1FF0
38E0
71F0
73F0
7CE0
79E0
79C0
7FC0
9F00
ENDCHAR

STARTCHAR char217
ENCODING 217
SWIDTH 5 0
DWIDTH 11 0
BBX 11 13 1 0
BITMAP
1C00
0E00
0000
71C0
71C0
71C0
63C0
E380
E380
E380
E780
FF00
3E00
ENDCHAR

STARTCHAR char218
ENCODING 218
SWIDTH 5 0
DWIDTH 11 0
BBX 11 13 1 0
BITMAP
0700
0600
0000
71C0
71C0
71C0
63C0
E380
E380
E380
E780
FF00
3E00
ENDCHAR

STARTCHAR char219
ENCODING 219
SWIDTH 5 0
DWIDTH 11 0
BBX 11 13 1 0
BITMAP
0F00
0F00
0000
71C0
71C0
71C0
63C0
E380
E380
E380
E780
FF00
3E00
ENDCHAR

STARTCHAR char220
ENCODING 220
SWIDTH 5 0
DWIDTH 11 0
BBX 11 13 1 0
BITMAP
1D80
1F80
0000
71C0
71C0
F1C0
E3C0
E380
E380
E380
E780
FF00
7E00
ENDCHAR

STARTCHAR char222
ENCODING 222
SWIDTH 29 0
DWIDTH 15 0
BBX 0 0 0 0
BITMAP
ENDCHAR

STARTCHAR char223
ENCODING 223
SWIDTH 61 0
DWIDTH 10 0
BBX 9 10 0 0
BITMAP
1F00
3F80
7380
7700
7F00
7380
6380
E780
EF00
FE00
ENDCHAR

STARTCHAR char224
ENCODING 224
SWIDTH 61 0
DWIDTH 10 0
BBX 9 10 0 0
BITMAP
1C00
0C00
0000
3F00
7380
1F80
7B80
E700
FF00
7700
ENDCHAR

STARTCHAR char225
ENCODING 225
SWIDTH 61 0
DWIDTH 10 0
BBX 9 10 0 0
BITMAP
0600
0E00
0000
3F00
7380
1F80
7B80
E700
FF00
7700
ENDCHAR

STARTCHAR char226
ENCODING 226
SWIDTH 61 0
DWIDTH 10 0
BBX 9 10 0 0
BITMAP
0E00
1B00
0000
3F00
7380
1F80
7B80
E700
FF00
7700
ENDCHAR

STARTCHAR char227
ENCODING 227
SWIDTH 61 0
DWIDTH 10 0
BBX 9 10 0 0
BITMAP
1F00
1E00
0000
3F00
7380
1F80
7B80
E700
FF00
7700
ENDCHAR

STARTCHAR char228
ENCODING 228
SWIDTH 61 0
DWIDTH 10 0
BBX 9 10 0 0
BITMAP
1B80
1B80
0000
3F00
7380
1F80
7B80
E700
FF00
7F00
ENDCHAR

STARTCHAR char229
ENCODING 229
SWIDTH 61 0
DWIDTH 10 0
BBX 9 11 0 0
BITMAP
0E00
0E00
0E00
0000
3F00
7F80
1F80
FB80
E700
FF00
7F00
ENDCHAR

STARTCHAR char230
ENCODING 230
SWIDTH 29 0
DWIDTH 15 0
BBX 14 7 0 0
BITMAP
3EF8
7FFC
7FFC
FFFC
E700
FFF8
79F0
ENDCHAR

STARTCHAR char231
ENCODING 231
SWIDTH 55 0
DWIDTH 9 0
BBX 9 10 0 -3
BITMAP
1F00
7F80
F000
E000
E780
FF00
7E00
3800
1800
7000
ENDCHAR

STARTCHAR char232
ENCODING 232
SWIDTH 61 0
DWIDTH 10 0
BBX 9 10 0 0
BITMAP
1C00
0C00
0000
1E00
7F80
FF80
FF80
E000
7F00
3E00
ENDCHAR

STARTCHAR char233
ENCODING 233
SWIDTH 61 0
DWIDTH 10 0
BBX 9 10 0 0
BITMAP
0600
0E00
0000
1E00
7F80
FF80
FF80
E000
7F00
3E00
ENDCHAR

STARTCHAR char234
ENCODING 234
SWIDTH 61 0
DWIDTH 10 0
BBX 9 10 0 0
BITMAP
0E00
3B00
0000
1E00
7F80
FF80
FF80
E000
7F00
3E00
ENDCHAR

STARTCHAR char235
ENCODING 235
SWIDTH 61 0
DWIDTH 10 0
BBX 9 10 0 0
BITMAP
3B80
3B00
0000
1E00
7F80
FF80
FF80
E000
7F00
3E00
ENDCHAR

STARTCHAR char236
ENCODING 236
SWIDTH 30 0
DWIDTH 5 0
BBX 5 10 0 0
BITMAP
70
30
00
70
70
70
70
F0
E0
60
ENDCHAR

STARTCHAR char237
ENCODING 237
SWIDTH 30 0
DWIDTH 5 0
BBX 6 10 0 0
BITMAP
38
30
00
70
70
70
70
F0
E0
60
ENDCHAR

STARTCHAR char238
ENCODING 238
SWIDTH 30 0
DWIDTH 5 0
BBX 6 10 0 0
BITMAP
78
EC
00
70
70
70
70
F0
E0
60
ENDCHAR

STARTCHAR char239
ENCODING 239
SWIDTH 30 0
DWIDTH 5 0
BBX 6 10 0 0
BITMAP
EC
EC
00
30
70
70
70
70
E0
60
ENDCHAR

STARTCHAR char241
ENCODING 241
SWIDTH 61 0
DWIDTH 10 0
BBX 9 10 0 0
BITMAP
1F00
1E00
0200
7F80
7F80
7380
7700
E700
E700
6300
ENDCHAR

STARTCHAR char242
ENCODING 242
SWIDTH 61 0
DWIDTH 10 0
BBX 9 10 0 0
BITMAP
1C00
0C00
0000
1E00
7F80
E380
E380
E780
FF00
3E00
ENDCHAR

STARTCHAR char243
ENCODING 243
SWIDTH 61 0
DWIDTH 10 0
BBX 9 10 0 0
BITMAP
0600
0E00
0000
1E00
7F80
E380
E380
E780
FF00
3E00
ENDCHAR

STARTCHAR char244
ENCODING 244
SWIDTH 61 0
DWIDTH 10 0
BBX 9 10 0 0
BITMAP
0E00
3B00
0000
1E00
7F80
E380
E380
E780
FF00
3E00
ENDCHAR

STARTCHAR char245
ENCODING 245
SWIDTH 61 0
DWIDTH 10 0
BBX 9 10 0 0
BITMAP
1F00
3E00
0000
1E00
7F80
E380
E380
E780
FF00
3E00
ENDCHAR

STARTCHAR char246
ENCODING 246
SWIDTH 61 0
DWIDTH 10 0
BBX 9 10 0 0
BITMAP
1B80
3B80
0000
1E00
7F80
E380
E380
E780
FF00
3E00
ENDCHAR

STARTCHAR char247
ENCODING 247
SWIDTH 49 0
DWIDTH 8 0
BBX 7 6 0 1
BITMAP
18
18
00
FE
18
18
ENDCHAR

STARTCHAR char248
ENCODING 248
SWIDTH 61 0
DWIDTH 10 0
BBX 9 7 0 0
BITMAP
1E80
7F80
6780
FB80
F700
7F00
BC00
ENDCHAR

STARTCHAR char249
ENCODING 249
SWIDTH 61 0
DWIDTH 10 0
BBX 9 10 0 0
BITMAP
1C00
0C00
0000
7380
7380
F380
E300
E700
FF00
7100
ENDCHAR

STARTCHAR char250
ENCODING 250
SWIDTH 61 0
DWIDTH 10 0
BBX 9 10 0 0
BITMAP
0600
0E00
0000
7380
7380
F380
E300
E700
FF00
7100
ENDCHAR

STARTCHAR char251
ENCODING 251
SWIDTH 61 0
DWIDTH 10 0
BBX 9 10 0 0
BITMAP
0E00
3B00
0000
7380
7380
F380
E300
E700
FF00
7100
ENDCHAR

STARTCHAR char252
ENCODING 252
SWIDTH 61 0
DWIDTH 10 0
BBX 9 10 0 0
BITMAP
1B80
1B80
0000
7380
7380
7380
6300
E700
FF00
7900
ENDCHAR

STARTCHAR char255
ENCODING 255
SWIDTH 49 0
DWIDTH 8 0
BBX 8 12 0 -2
BITMAP
37
37
00
67
77
7E
7E
7C
7C
38
F0
F0
ENDCHAR
ENDFONT
